PathFileType	4	(X/Y/Z)	Patient4_TMGait_0pt5_02_right_06.trc.trc
DataRate	CameraRate	NumFrames	NumMarkers	Units	OrigDataRate	OrigDataStartFrame	OrigNumFrames
74.468085106383	74.468085106383	5	33	mm	74.468085106383	106	       141
Frame#	Time	Sacral			L.Shoulder			Chest			R.Shoulder			Neck			R.ASIS			L.ASIS			R.Thigh.Superior			R.Thigh.Lateral			R.Thigh.Inferior			R.Patella			L.Thigh.Superior			L.Thigh.Lateral			L.Thigh.Inferior			L.Patella			L.Shank.Superior			L.Shank.Lateral			L.Shank.Inferior			R.Shank.Superior			R.Shank.Lateral			R.Shank.Inferior			R.Heel			R.Midfoot.Superior			R.Midfoot.Lateral			R.Toe			L.Heel			L.Midfoot.Lateral			L.Midfoot.Superior			L.Toe			L.Elbow			L.Wrist			R.Elbow			R.Wrist			
		X1	Y1	Z1	X2	Y2	Z2	X3	Y3	Z3	X4	Y4	Z4	X5	Y5	Z5	X6	Y6	Z6	X7	Y7	Z7	X8	Y8	Z8	X9	Y9	Z9	X10	Y10	Z10	X11	Y11	Z11	X12	Y12	Z12	X13	Y13	Z13	X14	Y14	Z14	X15	Y15	Z15	X16	Y16	Z16	X17	Y17	Z17	X18	Y18	Z18	X19	Y19	Z19	X20	Y20	Z20	X21	Y21	Z21	X22	Y22	Z22	X23	Y23	Z23	X24	Y24	Z24	X25	Y25	Z25	X26	Y26	Z26	X27	Y27	Z27	X28	Y28	Z28	X29	Y29	Z29	X30	Y30	Z30	X31	Y31	Z31	X32	Y32	Z32	X33	Y33	Z33	

106	9.210000000000	541.439095182744	1015.044467147564	433.640583635164	744.932749880464	1443.203480450366	270.338609769445	833.489005445265	1365.312691050492	436.006426970281	739.957462559003	1438.426407103159	606.636387982064	734.350684349908	1499.596806573766	422.487823293569	759.545575964463	947.631471659176	562.008799248168	763.264593766318	963.622740501339	287.378961462388	844.859296614461	784.662999383774	534.866680288226	807.325702938542	662.716749064188	606.180554147972	899.717367217532	625.264757393833	529.254138705044	922.857060525464	514.404373803107	552.498507361928	796.395197725143	746.449938625651	320.561914611636	700.520321835819	635.512161086437	264.713559747306	776.077239588337	554.350765293996	332.602703750382	771.346475431418	485.135789730527	346.030960805093	743.602267617037	415.272309510382	338.861743562937	653.501070893980	301.584659174224	289.606623908825	697.365816432428	192.229042507210	366.664588313893	853.908977680382	434.598936825371	557.104011437696	736.283345358900	380.736728640144	612.041602230944	737.458387504025	270.828380870634	563.725156887437	547.256184563924	190.348108739392	528.111107397076	717.990734219081	144.339112350707	572.897785232589	608.061283396579	133.311750697754	602.342756726328	790.509872996465	36.817679046247	600.005877155900	563.082667072742	38.488055505820	411.159936203838	637.806910373940	35.224839487189	331.027598621504	721.731777003243	95.639125777180	357.608242247838	850.025668698196	40.616808361610	330.652826321434	754.372392856848	1113.600837944406	101.365495546619	979.694813432365	982.620473459998	84.355382667420	645.458416972308	1100.156822391532	708.244392530163	668.937421240433	838.661469449443	699.831279214524	
107	9.223428571429	540.244928015130	1015.797601978176	432.549657061417	745.801938541266	1443.526548089485	270.188014034511	832.847966309059	1365.554677407920	436.600664082090	738.102092658265	1439.033517338355	606.374777394001	733.895490637614	1500.011372867886	422.198827733984	757.796048230043	948.257422830392	562.176674846376	762.689697038651	963.828006042821	287.597658413142	843.918820903746	786.875888815249	534.962635998816	807.787151935962	664.527040707543	606.416088573159	900.119206904129	627.904068079525	529.204376356939	925.200966319661	518.684903385784	552.759120302970	792.924704647179	745.499913580958	320.901664188503	695.489139328084	635.912248080596	264.251812754145	769.340257835638	553.758669988393	332.349126252377	763.584041483966	484.939611560891	345.762773604941	736.220165676647	415.465167796359	338.422727115869	646.283993829716	301.655566324641	289.218596236410	690.322147737461	192.398377951823	366.432474865123	860.139059672698	436.802437546938	557.446455211094	745.734509924655	376.606956897916	612.221691246952	753.254338484077	266.865024989273	564.047064877472	568.192570209815	175.214487155821	528.094621978509	741.026492258692	139.685961383986	573.308750511973	632.072353314828	122.159187214069	602.688079858676	819.814789366515	37.113969502828	600.840854914193	556.289191440535	38.522225095323	411.124265021421	631.021342731785	35.204448665233	331.004385394934	714.956801536026	95.644762366633	357.517338053170	843.250640358545	40.628156221380	330.654818201359	760.423989405666	1115.232425988381	100.068607331234	990.089272667894	992.198905661657	84.243607649671	634.818461002579	1103.699049994440	707.523707251619	651.170995450478	841.875910044724	699.999707960900	
108	9.236857142857	539.067349895126	1016.417998595352	431.567222934779	746.584637821519	1443.687632789301	270.149789592467	832.217069052949	1365.672597304579	437.264720109377	736.312215336932	1439.508828991809	606.180207902000	733.409137899864	1500.274642666178	422.013566249762	756.189239907982	948.657380340946	562.442820648421	762.083669106402	963.871962930339	287.930758483701	842.610055321047	788.312543270294	535.205834187367	807.429065124400	665.673551192393	606.768449327023	899.532287141644	629.592641593248	529.237232653541	926.348029390794	522.306795407792	553.053916667592	789.500275028896	744.488106197810	321.305853754009	690.489810471922	636.271848657091	263.807020647611	762.650416171242	553.144782123572	332.055909252162	755.906985065545	484.728597410826	345.407364391308	728.868129085781	415.632303568680	337.952002695613	639.059063352796	301.717428691060	288.823102572739	683.281476682251	192.549042541093	366.188616628107	865.552479769036	438.529478165532	557.952246034520	755.092467168709	371.800730782125	612.809283521515	769.309768605534	262.601736456509	564.764952870970	590.462095145584	159.382757965867	528.661043014385	764.840956704018	135.107277590048	574.266102270487	657.361821282529	110.807526867246	603.649014406108	849.958216735722	38.128864288437	602.321175793711	549.507353710845	38.546446742421	411.090451315902	624.232109722847	35.176789909680	330.983046304819	708.175014503748	95.641927735033	357.431023964356	836.472123980842	40.644246050870	330.659180142689	766.237366102878	1116.706661500134	99.033835790735	999.783797583340	1001.391135458330	84.547784845742	624.510919840873	1107.252982229541	706.759433568490	634.482071461886	845.326902870298	700.309424452119	
109	9.250285714286	537.911946067585	1016.869531922952	430.708373748973	747.269507147246	1443.656800180702	270.219043205622	831.595182232330	1365.638380390607	437.994966840558	734.599037354582	1439.825994530813	606.062943512950	732.898676062262	1500.360021945816	421.930180054438	754.736188230694	948.797936465749	562.809341087658	761.457944013817	963.752429057030	288.369055389924	840.948623086940	788.916178668531	535.580948808571	806.244699013110	666.113950902053	607.237585374975	897.977976472464	630.285928207833	529.363582776016	926.326410651195	525.199977360556	553.346196488590	786.159847599125	743.412475923234	321.728444119982	685.562513709011	636.576422253367	263.387030978298	756.082286143880	552.502704096100	331.721890223533	748.411710308946	484.487663494704	344.962055974457	721.609838809102	415.757478018806	337.456768584893	631.866633950286	301.768907736820	288.426079238620	676.266109954620	192.669838627952	365.935827189359	870.118696071184	439.792537259944	558.579953205495	764.344612543757	366.496919787144	613.796183870961	785.455400119119	258.281707244628	565.827689362304	613.886859969058	143.365532097972	529.800664334207	789.137125525062	130.921840446906	575.683574027645	683.678712555006	99.701174268944	605.169066715249	880.481056829251	40.132132699647	604.296772756750	542.735260636961	38.561092638924	411.059862208671	617.439632913224	35.142058386898	330.963801503473	701.387018614178	95.627951033554	357.350866881329	829.689210619927	40.661371905256	330.664826923284	771.805038066654	1117.978754692452	98.253778600023	1008.779418897349	1010.084389934679	85.226374037107	614.689134339681	1110.722197661044	705.962986944368	618.912342588940	848.832110424860	700.746225993231	
110	9.263714285714	536.803108517321	1017.119376893858	429.997948491757	747.845564436983	1443.415737379163	270.393575370336	830.981675406175	1365.434293905608	438.788009918271	732.976422633612	1439.967837287327	606.037575191863	732.370268361201	1500.250934111026	421.949183596148	753.446088693162	948.659374474225	563.276767984491	760.839262453700	963.478923687490	288.901699643114	838.960243146444	788.664807856650	536.081057985289	804.253388286818	665.842463588108	607.833571322309	895.511572016404	629.985366371213	529.607567685966	925.194249039884	527.325504333322	553.618024636572	782.939099846442	742.275764159590	322.131203862626	680.746556018452	636.817044586204	263.003862099361	749.701898904006	551.828009683213	331.355959686543	741.181534982036	484.202825691549	344.436972378775	714.502011386189	415.828772678836	336.949509699204	624.743546134754	301.811808629355	288.035832496458	669.295675679633	192.752968630457	365.678040590223	873.824251258253	440.620670085449	559.295463625580	773.445212283800	360.882879173443	615.149810190338	801.491442699633	254.127825230742	567.163569730048	638.190370325131	127.649775804959	531.455997277533	813.574012095741	127.391836650274	577.441461935729	710.687236152047	89.227760483954	607.144375070524	910.900213033472	43.302930815710	606.577669403078	535.969973207596	38.567584856127	411.034308944058	610.644357270165	35.101560751510	330.946860922135	694.593948780887	95.601431492001	357.277899356027	822.900974502153	40.676278727194	330.670808105063	777.112822059498	1119.013701474009	97.729741135088	1017.076935112542	1018.177319912169	86.238931055589	605.505390106879	1114.007042774976	705.157865345088	604.525434544741	852.231619831964	701.275466493659	
